<svg width="50" height="50" viewBox="0 0 50 50" fill="none" xmlns="http://www.w3.org/2000/svg">
<g clip-path="url(#clip0_11_156)">
<path fill-rule="evenodd" clip-rule="evenodd" d="M8.33332 25.0001C8.33362 21.7927 9.25939 18.6535 10.9995 15.9592C12.7397 13.2649 15.2203 11.13 18.1438 9.81053C21.0672 8.49109 24.3092 8.04322 27.4809 8.52065C30.6526 8.99809 33.6191 10.3805 36.0245 12.5022C38.43 14.6238 40.1722 17.3944 41.042 20.4816C41.9119 23.5687 41.8725 26.8414 40.9285 29.9067C39.9846 32.972 38.1762 35.6999 35.7204 37.763C33.2645 39.826 30.2656 41.1367 27.0833 41.5376V29.1667H31.25C31.8025 29.1667 32.3324 28.9473 32.7231 28.5566C33.1138 28.1659 33.3333 27.636 33.3333 27.0834C33.3333 26.5309 33.1138 26.001 32.7231 25.6103C32.3324 25.2196 31.8025 25.0001 31.25 25.0001H27.0833V20.8334C27.0833 20.2809 27.3028 19.751 27.6935 19.3603C28.0842 18.9696 28.6141 18.7501 29.1667 18.7501H30.2083C30.7609 18.7501 31.2908 18.5306 31.6815 18.1399C32.0722 17.7492 32.2917 17.2193 32.2917 16.6667C32.2917 16.1142 32.0722 15.5843 31.6815 15.1936C31.2908 14.8029 30.7609 14.5834 30.2083 14.5834H29.1667C27.5091 14.5834 25.9193 15.2419 24.7472 16.414C23.5751 17.5861 22.9167 19.1758 22.9167 20.8334V25.0001H18.75C18.1975 25.0001 17.6676 25.2196 17.2769 25.6103C16.8862 26.001 16.6667 26.5309 16.6667 27.0834C16.6667 27.636 16.8862 28.1659 17.2769 28.5566C17.6676 28.9473 18.1975 29.1667 18.75 29.1667H22.9167V41.5376C18.8889 41.0297 15.185 39.0694 12.5 36.0246C9.81496 32.9797 8.33339 29.0597 8.33332 25.0001ZM25 45.8334C36.5062 45.8334 45.8333 36.5063 45.8333 25.0001C45.8333 13.4938 36.5062 4.16675 25 4.16675C13.4937 4.16675 4.16666 13.4938 4.16666 25.0001C4.16666 36.5063 13.4937 45.8334 25 45.8334Z" fill="#A99562"/>
</g>
<defs>
<clipPath id="clip0_11_156">
<rect width="50" height="50" fill="white"/>
</clipPath>
</defs>
</svg>
