<svg width="92" height="100" viewBox="0 0 92 100" fill="none" xmlns="http://www.w3.org/2000/svg">
<path d="M62.7031 21.3184V13.7695C62.7031 13.1152 61.9512 12.7539 61.4434 13.1543L17.4199 47.5391C17.0459 47.8299 16.7432 48.2024 16.535 48.6281C16.3269 49.0537 16.2186 49.5213 16.2186 49.9951C16.2186 50.4689 16.3269 50.9365 16.535 51.3622C16.7432 51.7878 17.0459 52.1603 17.4199 52.4512L61.4434 86.8359C61.961 87.2363 62.7031 86.875 62.7031 86.2207V78.6719C62.7031 78.1933 62.4785 77.7344 62.1074 77.4414L26.9512 50L62.1074 22.5488C62.4785 22.2559 62.7031 21.7969 62.7031 21.3184Z" fill="#A99562"/>
</svg>
