<svg width="45" height="45" viewBox="0 0 45 45" fill="none" xmlns="http://www.w3.org/2000/svg">
<path d="M32.7209 12.5188C33.6754 11.5685 33.6754 10.0199 32.7209 9.06968L29.2092 5.55521L29.2142 5.56024C28.2848 4.63009 26.6871 3.03123 24.4264 0.773717C23.3613 -0.26705 21.6381 -0.256994 20.5831 0.798857L0.798766 20.5835C0.545641 20.8351 0.34475 21.1343 0.207663 21.4639C0.0705759 21.7936 0 22.1471 0 22.5041C0 22.8612 0.0705759 23.2147 0.207663 23.5443C0.34475 23.8739 0.545641 24.1732 0.798766 24.4248L20.578 44.2044C21.088 44.7138 21.7791 45 22.4997 45C23.2203 45 23.9114 44.7138 24.4213 44.2044L32.7159 35.9084C33.6704 34.9581 33.6704 33.4096 32.7159 32.4593C32.2574 32.0027 31.6369 31.7464 30.9902 31.7464C30.3434 31.7464 29.7229 32.0027 29.2644 32.4593L22.9845 38.7542C22.7233 39.0156 22.3163 39.0156 22.0551 38.7542L6.25477 22.9566C5.99352 22.6952 5.99352 22.2879 6.25477 22.0265L22.05 6.22894C22.0701 6.20883 22.0953 6.19375 22.1154 6.17364C22.3766 5.9675 22.7383 5.98761 22.9795 6.22894L29.2694 12.5188C30.224 13.4741 31.7714 13.4741 32.7209 12.5188ZM17.2622 22.6047C17.2622 24.0208 17.8249 25.379 18.8264 26.3803C19.8279 27.3817 21.1863 27.9443 22.6027 27.9443C24.0191 27.9443 25.3774 27.3817 26.3789 26.3803C27.3805 25.379 27.9431 24.0208 27.9431 22.6047C27.9431 21.1885 27.3805 19.8304 26.3789 18.829C25.3774 17.8277 24.0191 17.2651 22.6027 17.2651C21.1863 17.2651 19.8279 17.8277 18.8264 18.829C17.8249 19.8304 17.2622 21.1885 17.2622 22.6047ZM44.2006 20.6639L38.0262 14.5149C37.0716 13.5646 35.5243 13.5646 34.5747 14.5199C34.3478 14.746 34.1677 15.0147 34.0448 15.3107C33.922 15.6066 33.8587 15.924 33.8587 16.2444C33.8587 16.5649 33.922 16.8822 34.0448 17.1782C34.1677 17.4741 34.3478 17.7429 34.5747 17.969L38.7446 22.1371C39.0059 22.3985 39.0059 22.8058 38.7446 23.0672L34.635 27.175C34.4081 27.4011 34.228 27.6699 34.1051 27.9658C33.9823 28.2618 33.919 28.5791 33.919 28.8996C33.919 29.22 33.9823 29.5374 34.1051 29.8333C34.228 30.1293 34.4081 30.398 34.635 30.6241C35.0935 31.0807 35.714 31.337 36.3607 31.337C37.0075 31.337 37.628 31.0807 38.0865 30.6241L44.2056 24.5052C44.4579 24.253 44.6579 23.9534 44.7942 23.6236C44.9305 23.2938 45.0005 22.9404 45 22.5835C44.9995 22.2267 44.9287 21.8734 44.7915 21.544C44.6543 21.2146 44.4535 20.9155 44.2006 20.6639Z" fill="#A99562"/>
</svg>
