<svg width="35" height="35" viewBox="0 0 35 35" fill="none" xmlns="http://www.w3.org/2000/svg">
<path d="M33.6375 9.58325C32.1517 15.3804 29.1351 20.6716 24.9034 24.9033C20.6717 29.135 15.3804 32.1516 9.58331 33.6374C5.1229 34.7728 1.33331 30.9374 1.33331 26.3333V24.2499C1.33331 23.0999 2.26873 22.177 3.41456 22.0624C5.31149 21.8754 7.17351 21.4275 8.9479 20.7312L12.1125 23.8978C17.2686 21.4263 21.4263 17.2685 23.8979 12.1124L20.7312 8.94575C21.4282 7.17147 21.8769 5.30944 22.0646 3.41242C22.1771 2.26659 23.1 1.33325 24.25 1.33325H26.3333C30.9333 1.33325 34.7708 5.12284 33.6354 9.58325" stroke="#A99562" stroke-width="2" stroke-linecap="round" stroke-linejoin="round"/>
</svg>
